<svg xmlns="http://www.w3.org/2000/svg" viewBox="0 0 400 320" role="img" aria-label="Orion constellation">
  <rect width="400" height="320" fill="#020617"/>
  <g fill="#fff" opacity=".9">
    <circle cx="80" cy="60" r="2"/><circle cx="120" cy="45" r="1.5"/><circle cx="300" cy="70" r="2"/>
    <circle cx="340" cy="110" r="1.2"/><circle cx="50" cy="200" r="1.5"/><circle cx="360" cy="250" r="1.8"/>
  </g>
  <g stroke="#64b5f6" stroke-width="2.5" fill="none" opacity=".85">
    <line x1="120" y1="70" x2="160" y2="110"/><line x1="160" y1="110" x2="200" y2="130"/>
    <line x1="200" y1="130" x2="240" y2="110"/><line x1="240" y1="110" x2="280" y2="70"/>
    <line x1="200" y1="130" x2="200" y2="210"/>
    <line x1="170" y1="250" x2="200" y2="210"/><line x1="230" y1="250" x2="200" y2="210"/>
  </g>
  <g fill="#90caf9">
    <circle cx="120" cy="70" r="5"/><circle cx="160" cy="110" r="4"/><circle cx="200" cy="130" r="6"/>
    <circle cx="240" cy="110" r="4"/><circle cx="280" cy="70" r="5"/>
    <circle cx="200" cy="210" r="7" fill="#ff8a65"/><circle cx="170" cy="250" r="4"/><circle cx="230" cy="250" r="4"/>
  </g>
  <text x="200" y="300" text-anchor="middle" fill="#78909c" font-family="sans-serif" font-size="14">Orion u6ž</text>
</svg>
