<svg xmlns="http://www.w3.org/2000/svg" viewBox="0 0 320 400" role="img" aria-label="kŽ">
  <rect width="320" height="400" fill="#141014"/>
  <ellipse cx="160" cy="280" rx="55" ry="18" fill="#000" opacity=".5"/>
  <path d="M130 90 Q160 70 190 90 L200 300 Q160 320 120 300 Z" fill="#eceff1" opacity=".9"/>
  <ellipse cx="160" cy="130" rx="42" ry="48" fill="#ffccbc"/>
  <ellipse cx="145" cy="125" rx="8" ry="10" fill="#37474f"/>
  <ellipse cx="175" cy="125" rx="8" ry="10" fill="#37474f"/>
  <path d="M150 150 Q160 158 170 150" fill="none" stroke="#8d6e63" stroke-width="2"/>
  <path d="M115 180 Q160 200 205 180" fill="none" stroke="#b71c1c" stroke-width="2" stroke-dasharray="6 4" opacity=".6"/>
  <path d="M95 200 Q160 240 225 200" fill="#37474f" opacity=".35"/>
  <path d="M100 220 L90 310 M220 220 L230 310" stroke="#546e7a" stroke-width="6" opacity=".5"/>
  <rect x="230" y="250" width="55" height="70" rx="4" fill="#263238" stroke="#78909c" stroke-width="2"/>
  <ellipse cx="257" cy="285" rx="20" ry="25" fill="#455a64"/>
  <text x="160" y="385" text-anchor="middle" fill="#bcaaa4" font-family="serif" font-size="22">kŽ</text>
</svg>
