<svg xmlns="http://www.w3.org/2000/svg" viewBox="0 0 320 400" role="img" aria-label="]>Đ">
  <rect width="320" height="400" fill="#1a1020"/>
  <ellipse cx="160" cy="250" rx="70" ry="90" fill="#fff" opacity=".08"/>
  <ellipse cx="160" cy="155" rx="52" ry="58" fill="#ffccbc"/>
  <ellipse cx="138" cy="148" rx="9" ry="12" fill="#3e2723"/>
  <ellipse cx="182" cy="148" rx="9" ry="12" fill="#3e2723"/>
  <path d="M152 172 Q160 180 168 172" fill="none" stroke="#bf360c" stroke-width="2"/>
  <path d="M108 120 Q95 80 110 55" fill="#e65100" opacity=".9"/>
  <path d="M212 120 Q225 80 210 55" fill="#e65100" opacity=".9"/>
  <path d="M130 95 Q120 50 140 35" fill="#ff6f00"/>
  <path d="M190 95 Q200 50 180 35" fill="#ff6f00"/>
  <path d="M160 85 Q150 40 160 25 Q170 40 160 85" fill="#ff8f00"/>
  <path d="M145 100 Q100 130 70 160" stroke="#ff9800" stroke-width="14" fill="none" stroke-linecap="round" opacity=".85"/>
  <path d="M175 100 Q220 130 250 160" stroke="#ff9800" stroke-width="14" fill="none" stroke-linecap="round" opacity=".85"/>
  <path d="M140 110 Q90 180 75 240" stroke="#fb8c00" stroke-width="12" fill="none" stroke-linecap="round" opacity=".75"/>
  <path d="M180 110 Q230 180 245 240" stroke="#fb8c00" stroke-width="12" fill="none" stroke-linecap="round" opacity=".75"/>
  <path d="M150 115 Q110 200 100 280" stroke="#f57c00" stroke-width="10" fill="none" stroke-linecap="round" opacity=".65"/>
  <path d="M170 115 Q210 200 220 280" stroke="#f57c00" stroke-width="10" fill="none" stroke-linecap="round" opacity=".65"/>
  <text x="160" y="385" text-anchor="middle" fill="#ffab91" font-family="serif" font-size="22">]>Đ</text>
</svg>
