<svg xmlns="http://www.w3.org/2000/svg" viewBox="0 0 320 400" role="img" aria-label="tx">
  <rect width="320" height="400" fill="#200808"/>
  <ellipse cx="160" cy="230" rx="95" ry="80" fill="#c62828"/>
  <ellipse cx="160" cy="150" rx="70" ry="65" fill="#d32f2f"/>
  <path d="M90 120 Q70 80 95 60" fill="#b71c1c"/>
  <path d="M230 120 Q250 80 225 60" fill="#b71c1c"/>
  <ellipse cx="135" cy="145" rx="14" ry="18" fill="#ffeb3b"/>
  <ellipse cx="185" cy="145" rx="14" ry="18" fill="#ffeb3b"/>
  <ellipse cx="135" cy="148" rx="5" ry="8" fill="#000"/>
  <ellipse cx="185" cy="148" rx="5" ry="8" fill="#000"/>
  <path d="M120 175 L140 190 L160 170 L180 190 L200 175" fill="none" stroke="#ffeb3b" stroke-width="3"/>
  <rect x="40" y="300" width="24" height="40" rx="4" fill="#ff5722" opacity=".8"/>
  <rect x="70" y="310" width="20" height="30" rx="3" fill="#ff9800" opacity=".8"/>
  <rect x="230" y="300" width="24" height="40" rx="4" fill="#ff5722" opacity=".8"/>
  <text x="160" y="385" text-anchor="middle" fill="#ef9a9a" font-family="serif" font-size="22">tx</text>
</svg>
