<svg xmlns="http://www.w3.org/2000/svg" viewBox="0 0 320 400" role="img" aria-label="–">
  <defs>
    <radialGradient id="g" cx="50%" cy="30%" r="70%">
      <stop offset="0%" stop-color="#7b1fa2"/>
      <stop offset="100%" stop-color="#311b92"/>
    </radialGradient>
  </defs>
  <rect width="320" height="400" fill="#120a18"/>
  <circle cx="160" cy="200" r="120" fill="url(#g)" opacity=".35"/>
  <ellipse cx="160" cy="130" rx="55" ry="62" fill="#d7ccc8"/>
  <path d="M105 95 Q160 55 215 95" fill="#4a148c"/>
  <ellipse cx="135" cy="125" rx="10" ry="14" fill="#1a1a1a"/>
  <ellipse cx="185" cy="125" rx="10" ry="14" fill="#1a1a1a"/>
  <ellipse cx="135" cy="127" rx="4" ry="6" fill="#e1bee7"/>
  <ellipse cx="185" cy="127" rx="4" ry="6" fill="#e1bee7"/>
  <path d="M145 155 Q160 168 175 155" fill="none" stroke="#8d6e63" stroke-width="2"/>
  <path d="M120 190 Q160 250 200 190 L190 320 Q160 340 130 320 Z" fill="#6a1b9a" opacity=".9"/>
  <path d="M95 200 Q70 260 85 310" fill="none" stroke="#ce93d8" stroke-width="3" opacity=".7"/>
  <path d="M225 200 Q250 260 235 310" fill="none" stroke="#ce93d8" stroke-width="3" opacity=".7"/>
  <text x="160" y="380" text-anchor="middle" fill="#ce93d8" font-family="serif" font-size="28">–</text>
</svg>
