<svg xmlns="http://www.w3.org/2000/svg" viewBox="0 0 320 400" role="img" aria-label="T">
  <defs>
    <radialGradient id="f" cx="50%" cy="50%" r="50%">
      <stop offset="0%" stop-color="#ff5722"/>
      <stop offset="100%" stop-color="#bf360c"/>
    </radialGradient>
  </defs>
  <rect width="320" height="400" fill="#180808"/>
  <path d="M160 40 L200 120 L280 120 L215 175 L240 260 L160 210 L80 260 L105 175 L40 120 L120 120 Z" fill="url(#f)" opacity=".25"/>
  <ellipse cx="160" cy="145" rx="58" ry="65" fill="#5d4037"/>
  <path d="M102 95 L118 55 L140 90 M218 55 L234 95 L198 90" fill="#212121"/>
  <ellipse cx="135" cy="140" rx="12" ry="16" fill="#ffeb3b"/>
  <ellipse cx="185" cy="140" rx="12" ry="16" fill="#ffeb3b"/>
  <ellipse cx="135" cy="142" rx="4" ry="8" fill="#000"/>
  <ellipse cx="185" cy="142" rx="4" ry="8" fill="#000"/>
  <path d="M130 175 L150 190 L170 175 L190 190 L210 175" fill="none" stroke="#ff5722" stroke-width="3"/>
  <path d="M110 220 Q160 320 210 220 L200 350 Q160 370 120 350 Z" fill="#3e2723"/>
  <text x="160" y="385" text-anchor="middle" fill="#ff7043" font-family="serif" font-size="28">T</text>
</svg>
